# AST/ASF file generated using VICON BodyLanguage
# -----------------------------------------------
:version 1.10
:name VICON
:units
  mass 1.0
  length 0.45
  angle deg
:documentation
   .ast/.asf automatically generated from VICON data using
   VICON BodyBuilder and BodyLanguage model FoxedUp or BRILLIANT.MOD
:root
   order TX TY TZ RX RY RZ
   axis XYZ
   position 0 0 0  
   orientation 0 0 0 
:bonedata
  begin
     id 1 
     name lhipjoint
     direction 0.573633 -0.743009 0.344793 
     length 2.46257 
     axis 0 0 0  XYZ
  end
  begin
     id 2 
     name lfemur
     direction 0.34202 -0.939693 0  
     length 7.3842  
     axis 0 0 20  XYZ
    dof rx ry rz
    limits (-160.0 20.0)
           (-70.0 70.0)
           (-60.0 70.0)
  end
  begin
     id 3 
     name ltibia
     direction 0.34202 -0.939693 0   
     length 7.50407   
     axis 0 0 20   XYZ
    dof rx
    limits (-10.0 170.0)
  end
  begin
     id 4 
     name lfoot
     direction 0.110749 -0.304281 0.946123   
     length 1.95925   
     axis -90 7.62852e-016 20   XYZ
    dof rx rz
    limits (-45.0 90.0)
           (-70.0 20.0)
  end
  begin
     id 5 
     name ltoes
     direction 1.53554e-011 -4.21843e-011 1   
     length 0.978318   
     axis -90 7.62852e-016 20   XYZ
    dof rx
    limits (-90.0 20.0)
  end
  begin
     id 6 
     name rhipjoint
     direction -0.488109 -0.791693 0.367385   
     length 2.31113  
     axis 0 0 0  XYZ 
  end
  begin
     id 7 
     name rfemur
     direction -0.34202 -0.939693 0   
     length 7.40965   
     axis 0 0 -20   XYZ
    dof rx ry rz
    limits (-160.0 20.0)
           (-70.0 70.0)
           (-70.0 60.0)
  end
  begin
     id 8 
     name rtibia
     direction -0.34202 -0.939693 0   
     length 7.55548   
     axis 0 0 -20   XYZ
    dof rx
    limits (-10.0 170.0)
 end
 begin
     id 9 
     name rfoot
     direction -0.127594 -0.350561 0.927808   
     length 2.07199  
     axis -90 -7.62852e-016 -20   XYZ
    dof rx rz
    limits (-45.0 90.0)
           (-20.0 70.0)
  end
  begin
     id 10 
     name rtoes
     direction -1.53542e-011 -4.21909e-011 1   
     length 1.02667   
     axis -90 -7.62852e-016 -20   XYZ
    dof rx
    limits (-90.0 20.0)
  end
  begin
     id 11 
     name lowerback
     direction -0.0103342 0.997298 -0.0727278   
     length 2.02836   
     axis 0 0 0   XYZ
    dof rx ry rz
    limits (-20.0 45.0)
           (-30.0 30.0)
           (-30.0 30.0)
  end
  begin
     id 12 
     name upperback
     direction 0.0171146 0.999786 -0.011606   
     length 2.03179   
     axis 0 0 0   XYZ
    dof rx ry rz
    limits (-20.0 45.0)
           (-30.0 30.0)
           (-30.0 30.0)
  end
  begin
     id 13 
     name thorax
     direction 0.0216927 0.999513 0.0224343   
     length 2.03882   
     axis 0 0 0   XYZ
    dof rx ry rz
    limits (-20.0 45.0)
           (-30.0 30.0)
           (-30.0 30.0)
  end
  begin
     id 14 
     name lowerneck
     direction 0.000989287 0.993907 0.110221   
     length 1.75428   
     axis 0 0 0   XYZ
    dof rx ry rz
    limits (-20.0 45.0)
           (-30.0 30.0)
           (-30.0 30.0)
  end
  begin
     id 15 
     name upperneck
     direction -0.0172474 0.994813 -0.100253   
     length 1.77058   
     axis 0 0 0   XYZ
    dof rx ry rz
    limits (-20.0 45.0)
           (-30.0 30.0)
           (-30.0 30.0)
  end
  begin
     id 16
     name head
     direction -0.00486455 0.99894 -0.0457663  
     length 1.77427  
     axis 0 0 0   XYZ
    dof rx ry rz
    limits (-20.0 45.0)
           (-30.0 30.0)
           (-30.0 30.0)
  end
  begin
     id 17 
     name lclavicle
     direction 0.927314 0.333734 -0.169441  
     length 3.97584  
     axis 0 0 0   XYZ
    dof ry rz
    limits (-20.0 10.0)
           (0.0 20.0)
  end
  begin
     id 18 
     name lhumerus
     direction 1 -4.48965e-011 -3.25313e-028   
     length 4.76468   
     axis 180 -30 -90   XYZ
    dof rx ry rz
    limits (-60.0 90.0)
           (-90.0 90.0)
           (-90.0 90.0)
  end
  begin
     id 19
     name lradius
     direction 1 -4.48969e-011 -2.8465e-028   
     length 3.52712   
     axis -180 -30 -90   XYZ
    dof rx
    limits (-10.0 170.0)
  end
  begin
     id 20
     name lwrist
     direction 1 -4.4896e-011 -7.78665e-028   
     length 1.76356   
     axis 1.91374e-015 90 90   XYZ
    dof ry
    limits (-180.0 0.0)
 end
  begin
     id 21 
     name lhand
     direction 1 -4.48959e-011 -1.55733e-027   
     length 0.859564   
     axis 9.9371e-016 90 90   XYZ
    dof rx rz
    limits (-90.0 90.0)
           (-45.0 45.0)
  end
  begin
     id 22 
     name lfingers
     direction 1 -4.48965e-011 -3.11466e-027   
     length 0.693002   
     axis 1.98742e-015 90 90   XYZ
    dof rx
    limits (0.0 90.0)
  end
  begin
     id 23
     name lthumb
     direction 0.707107 -6.34948e-011 0.707107   
     length 0.995017   
     axis -90 45 2.85299e-015   XYZ
    dof rx rz
    limits (-45.0 45.0)
           (-45.0 45.0)
  end
  begin
     id 24 
     name rclavicle
     direction -0.899388 0.348209 -0.264294   
     length 3.68366  
     axis 0 0 0   XYZ 
    dof ry rz
    limits (-10.0 20.0)
           (-20.0 0.0)
  end
  begin
     id 25 
     name rhumerus
     direction -1 -4.48965e-011 -3.01536e-027  
     length 4.90577   
     axis 180 30 90   XYZ
    dof rx ry rz
    limits (-90.0 60.0)
           (-90.0 90.0)
           (-90.0 90.0)
  end
  begin
     id 26 
     name rradius
     direction -1 -4.48966e-011 3.93291e-027   
     length 3.42692   
     axis -180 30 90   XYZ
    dof rx
    limits (-10.0 170.0)
  end
  begin
     id 27 
     name rwrist
     direction -1 -4.48969e-011 -7.78665e-028   
     length 1.71346   
     axis 1.91374e-015 -90 -90   XYZ
    dof ry
    limits (-180.0 0.0)
  end
  begin
     id 28
     name rhand
     direction -1 -4.48967e-011 -1.55733e-027   
     length 0.740957   
     axis 9.9371e-016 -90 -90   XYZ
    dof rx rz
    limits (-90.0 90.0)
           (-45.0 45.0)
  end
  begin
     id 29
     name rfingers
     direction -1 -4.48949e-011 -3.11466e-027   
     length 0.597378   
     axis 1.98742e-015 -90 -90   XYZ
    dof rx
    limits (0.0 90.0)
  end
  begin
     id 30
     name rthumb
     direction -0.707107 -6.34931e-011 0.707107   
     length 0.857719   
     axis -90 -45 -2.85299e-015   XYZ
    dof rx rz
    limits (-45.0 45.0)
           (-45.0 45.0)
  end
:hierarchy
  begin
    root lhipjoint rhipjoint lowerback
    lhipjoint lfemur
    lfemur ltibia
    ltibia lfoot
    lfoot ltoes
    rhipjoint rfemur
    rfemur rtibia
    rtibia rfoot
    rfoot rtoes
    lowerback upperback
    upperback thorax
    thorax lowerneck lclavicle rclavicle
    lowerneck upperneck
    upperneck head
    lclavicle lhumerus
    lhumerus lradius
    lradius lwrist
    lwrist lhand lthumb
    lhand lfingers
    rclavicle rhumerus
    rhumerus rradius
    rradius rwrist
    rwrist rhand rthumb
    rhand rfingers
  end

#!OML:ASF E:\I on waltz\AllaLogoMonkeySwing\Project 1\Capture day 1\Session 1\Subject1.ASF
:FULLY-SPECIFIED
:DEGREES
32
root -0.596083 17.9925 -32.1793 1.04837 2.4728 0.861796
lowerback 4.34122 -0.283196 -4.15042
upperback -0.846751 -0.596141 0.358476
thorax -3.2651 -0.213682 2.74192
lowerneck -7.11441 -5.7729 -8.09766
upperneck 12.4343 -6.93671 0.952392
head 5.24042 -3.70847 1.12884
rclavicle 2.92586e-015 5.56597e-015
rhumerus -34.6519 -22.2222 -74.286
rradius 32.3972
rwrist -3.37607
rhand -10.6344 -39.3104
rfingers 7.12502
rthumb 15.3726 -68.7189
lclavicle 2.92586e-015 5.56597e-015
lhumerus -46.7242 27.0788 74.1906
lradius 35.549
lwrist -3.61477
lhand -8.13292 -10.2747
lfingers 7.12502
lthumb 17.7809 18.9324
rfemur 3.45165 -4.99499 12.1866
rtibia 16.0042
rfoot -14.707 -12.4733
rtoes 12.4254
lfemur 6.39215 -0.801183 -14.3977
ltibia 7.18699
lfoot -10.2182 7.02992
ltoes -42.0756
33
root -0.590059 17.9933 -32.1846 1.00385 2.39071 0.298837
lowerback 4.40667 -0.190308 -3.67856
upperback -0.769971 -0.443142 0.49163
thorax -3.23589 -0.147005 2.60384
lowerneck -6.84385 -5.78187 -8.20512
upperneck 12.0615 -6.98222 1.11867
head 5.0905 -3.71997 1.20676
rclavicle -1.41323e-016 -1.13804e-014
rhumerus -34.5105 -21.8471 -74.6923
rradius 33.0858
rwrist -3.2878
rhand -10.3481 -39.7752
rfingers 7.12502
rthumb 15.6484 -69.1623
lclavicle -1.41323e-016 -1.13804e-014
lhumerus -46.6295 27.2868 73.8957
lradius 35.2213
lwrist -3.69742
lhand -7.94041 -10.3445
lfingers 7.12502
lthumb 17.9662 18.8456
rfemur 3.39981 -4.80625 12.9043
rtibia 16.0294
rfoot -14.8088 -12.6786
rtoes 11.862
lfemur 6.42682 -0.822526 -13.6642
ltibia 7.19841
lfoot -10.3972 6.9756
ltoes -40.5449
34
root -0.578294 17.995 -32.1897 1.08634 2.32353 0.0282793
lowerback 4.38792 -0.0935089 -3.44812
upperback -0.750303 -0.299146 0.524539
thorax -3.2159 -0.0799804 2.4979
lowerneck -7.01118 -5.90077 -7.93336
upperneck 12.4127 -7.09915 0.660863
head 5.2074 -3.79844 1.00404
rclavicle -5.31128e-015 -6.4605e-016
rhumerus -34.4723 -21.3962 -75.1134
rradius 33.8581
rwrist -3.47105
rhand -9.84687 -40.6075
rfingers 7.12502
rthumb 16.1311 -69.9562
lclavicle -5.31128e-015 -6.4605e-016
lhumerus -46.7152 27.5217 73.5162
lradius 35.1695
lwrist -3.83014
lhand -7.55289 -10.3311
lfingers 7.12502
lthumb 18.339 18.8245
rfemur 3.29553 -4.77932 13.1983
rtibia 15.9598
rfoot -14.8459 -12.6931
rtoes 11.5372
lfemur 6.32649 -0.825549 -13.3507
ltibia 7.20785
lfoot -10.6349 6.99372
ltoes -40.2055
35
root -0.563968 17.9969 -32.1965 1.17951 2.30668 -0.129693
lowerback 4.37933 -0.0593832 -3.36231
upperback -0.744853 -0.246659 0.582475
thorax -3.20901 -0.0550996 2.50577
lowerneck -7.06496 -5.93209 -7.85896
upperneck 12.5511 -7.09731 0.308139
head 5.24486 -3.81847 0.879771
rclavicle 1.23309e-015 -1.67476e-014
rhumerus -34.3124 -20.9362 -75.4403
rradius 34.1543
rwrist -3.79673
rhand -10.157 -40.4788
rfingers 7.12502
rthumb 15.8324 -69.8514
lclavicle 1.23309e-015 -1.67476e-014
lhumerus -46.8313 27.9254 73.1506
lradius 35.0534
lwrist -3.93421
lhand -7.36974 -10.4869
lfingers 7.12502
lthumb 18.5152 18.652
rfemur 3.25379 -4.80705 13.333
rtibia 15.7643
rfoot -14.7206 -12.6939
rtoes 11.2642
lfemur 6.18021 -0.776186 -13.196
ltibia 7.23949
lfoot -10.7584 6.98025
ltoes -40.6288
36
root -0.547555 17.9977 -32.2025 1.20724 2.32903 -0.196319
lowerback 4.4179 -0.015838 -3.34483
upperback -0.724442 -0.188115 0.600843
thorax -3.21361 -0.0262975 2.51094
lowerneck -6.83909 -5.91998 -8.09531
upperneck 12.3782 -7.09215 0.451631
head 5.16714 -3.81516 0.970756
rclavicle -1.29055e-015 -9.93923e-015
rhumerus -34.149 -20.6788 -75.7174
rradius 34.3282
rwrist -3.81121
rhand -10.158 -40.5362
rfingers 7.12502
rthumb 15.8315 -69.9089
lclavicle -1.29055e-015 -9.93923e-015
lhumerus -46.7852 28.2385 72.8536
lradius 34.8775
lwrist -3.8431
lhand -7.18231 -10.729
lfingers 7.12502
lthumb 18.6955 18.3926
rfemur 3.3284 -4.91096 13.3054
rtibia 15.5105
rfoot -14.5266 -12.6671
rtoes 11.1858
lfemur 6.12357 -0.825557 -13.1758
ltibia 7.24068
lfoot -10.7929 6.95781
ltoes -40.5452
37
root -0.531977 17.9985 -32.2059 1.2299 2.40022 -0.145458
lowerback 4.45369 0.0411466 -3.42419
upperback -0.712965 -0.11929 0.549708
thorax -3.22668 0.00903802 2.49794
lowerneck -6.62396 -5.92224 -8.24549
upperneck 12.2583 -7.12569 0.666061
head 5.10837 -3.82362 1.06618
rclavicle -1.44119e-015 1.98785e-016
rhumerus -34.1273 -20.6105 -75.9293
rradius 34.517
rwrist -3.48401
rhand -9.60652 -41.0811
rfingers 7.12502
rthumb 16.3625 -70.4109
lclavicle -1.44119e-015 1.98785e-016
lhumerus -46.6928 28.4364 72.5573
lradius 34.7553
lwrist -3.73366
lhand -6.94556 -11.0109
lfingers 7.12502
lthumb 18.9232 18.0886
rfemur 3.44061 -5.07517 13.1197
rtibia 15.2688
rfoot -14.4009 -12.6155
rtoes 11.0207
lfemur 6.09824 -0.890753 -13.2865
ltibia 7.20345
lfoot -10.8693 6.93079
ltoes -40.2705
38
root -0.520053 18.0008 -32.2103 1.33655 2.45878 -0.272746
lowerback 4.3706 0.102129 -3.35349
upperback -0.711583 -0.0312026 0.54317
thorax -3.18439 0.0507458 2.44488
lowerneck -6.43039 -5.90261 -8.43128
upperneck 12.1205 -7.13609 0.975445
head 5.05132 -3.81643 1.1977
rclavicle -2.97866e-015 1.59028e-014
rhumerus -34.1803 -20.6155 -76.0901
rradius 34.5592
rwrist -3.11677
rhand -9.51722 -41.0355
rfingers 7.12502
rthumb 16.4485 -70.3582
lclavicle -2.97866e-015 1.59028e-014
lhumerus -46.5616 28.5739 72.3433
lradius 34.7228
lwrist -3.67478
lhand -7.08914 -11.1578
lfingers 7.12502
lthumb 18.7851 17.9552
rfemur 3.45572 -5.08786 13.2214
rtibia 14.9839
rfoot -14.3829 -12.6689
rtoes 10.2834
lfemur 5.97023 -0.892464 -13.1431
ltibia 7.1615
lfoot -10.9513 6.9124
ltoes -40.132
39
root -0.505827 18.0028 -32.2175 1.48579 2.44649 -0.519129
lowerback 4.1819 0.186465 -3.17757
upperback -0.669784 0.0989729 0.578412
thorax -3.04312 0.109729 2.37299
lowerneck -6.75492 -5.98875 -8.38792
upperneck 12.5586 -7.19965 0.78351
head 5.23728 -3.86357 1.11043
rclavicle 1.2921e-015 1.17283e-014
rhumerus -34.1696 -20.6667 -76.2333
rradius 34.5186
rwrist -2.83653
rhand -9.53302 -40.8565
rfingers 7.12502
rthumb 16.4333 -70.1805
lclavicle 1.2921e-015 1.17283e-014
lhumerus -46.3356 28.8378 72.1648
lradius 34.7094
lwrist -3.73312
lhand -7.3624 -11.2069
lfingers 7.12502
lthumb 18.5222 17.9313
rfemur 3.36818 -5.07001 13.4614
rtibia 14.7262
rfoot -14.3668 -12.6952
rtoes 9.60266
lfemur 5.80104 -0.914081 -12.8925
ltibia 7.10147
lfoot -10.9523 6.92743
ltoes -40.0834
